<?xml version="1.0" encoding="UTF-8" standalone="no"?>
<!-- Created with Inkscape (http://www.inkscape.org/) -->

<svg
   width="38.753597mm"
   height="65.022255mm"
   viewBox="0 0 38.753597 65.022256"
   version="1.1"
   id="svg1"
   xml:space="preserve"
   xmlns:xlink="http://www.w3.org/1999/xlink"
   xmlns="http://www.w3.org/2000/svg"
   xmlns:svg="http://www.w3.org/2000/svg"
   xmlns:rdf="http://www.w3.org/1999/02/22-rdf-syntax-ns#"
   xmlns:cc="http://creativecommons.org/ns#"
   xmlns:dc="http://purl.org/dc/elements/1.1/"><title
     id="title39">DashNix</title><defs
     id="defs1"><linearGradient
       id="linearGradient106"><stop
         style="stop-color:#28b3fc;stop-opacity:1;"
         offset="0"
         id="stop106" /><stop
         style="stop-color:#28b3fc;stop-opacity:1;"
         offset="0.23456791"
         id="stop109" /><stop
         style="stop-color:#f8f641;stop-opacity:1;"
         offset="0.4526749"
         id="stop108" /><stop
         style="stop-color:#f8f641;stop-opacity:1;"
         offset="0.59362137"
         id="stop110" /><stop
         style="stop-color:#ff0d01;stop-opacity:1;"
         offset="0.66358024"
         id="stop111" /><stop
         style="stop-color:#ff0d01;stop-opacity:1;"
         offset="1"
         id="stop107" /></linearGradient><linearGradient
       xlink:href="#linearGradient106"
       id="linearGradient107"
       x1="278.05182"
       y1="-843.59747"
       x2="529.8988"
       y2="-736.69476"
       gradientUnits="userSpaceOnUse"
       spreadMethod="pad" /></defs><g
     id="layer1"
     transform="matrix(0.45379,0,0,0.45379,-29.020506,-23.643099)"><g
       id="g82"
       transform="matrix(0.16779066,0,0,0.16779066,64.401373,52.777012)"
       style="fill:#28b3fc;fill-opacity:1"><g
         id="layer3-7"
         style="display:inline;fill:#28b3fc;fill-opacity:1"
         transform="translate(-141.35649,1425.3526)"><g
           id="g113"><g
             id="layer1-8"
             style="display:inline;fill:#28b3fc;fill-opacity:1"
             transform="translate(-14.982227,-492.1621)"><path
               style="color:#000000;clip-rule:nonzero;display:inline;overflow:visible;visibility:visible;opacity:1;isolation:auto;mix-blend-mode:normal;color-interpolation:sRGB;color-interpolation-filters:linearRGB;solid-color:#000000;solid-opacity:1;fill:#28b3fc;fill-opacity:1;fill-rule:evenodd;stroke:none;stroke-width:3;stroke-linecap:butt;stroke-linejoin:round;stroke-miterlimit:4;stroke-dasharray:none;stroke-dashoffset:0;stroke-opacity:1;color-rendering:auto;image-rendering:auto;shape-rendering:auto;text-rendering:auto;enable-background:accumulate"
               d="m 309.40365,-710.2521 122.19683,211.6751 -56.15706,0.5268 -32.6236,-56.8692 -32.85645,56.5653 -27.90237,-0.011 -14.29086,-24.6896 46.81047,-80.4902 -33.22946,-57.8256 z"
               id="path4861" /><path
               style="fill:#f7f5f6;fill-opacity:1"
               d="m 353.50926,-797.4433 -122.21756,211.6631 -28.53477,-48.37 32.93839,-56.6875 -65.41521,-0.1719 -13.9414,-24.1698 14.23637,-24.721 93.11177,0.2939 33.46371,-57.6903 z"
               id="use4863" /><path
               style="color:#000000;clip-rule:nonzero;display:inline;overflow:visible;visibility:visible;opacity:1;isolation:auto;mix-blend-mode:normal;color-interpolation:sRGB;color-interpolation-filters:linearRGB;solid-color:#000000;solid-opacity:1;fill:#28b3fc;fill-opacity:1;fill-rule:evenodd;stroke:none;stroke-width:3;stroke-linecap:butt;stroke-linejoin:round;stroke-miterlimit:4;stroke-dasharray:none;stroke-dashoffset:0;stroke-opacity:1;color-rendering:auto;image-rendering:auto;shape-rendering:auto;text-rendering:auto;enable-background:accumulate"
               d="m 362.88537,-628.243 244.41439,0.012 -27.62229,48.8968 -65.56199,-0.1817 32.55876,56.7371 -13.96098,24.1585 -28.52722,0.032 -46.3013,-80.7841 -66.69317,-0.1353 z"
               id="use4865" /><path
               style="color:#000000;clip-rule:nonzero;display:inline;overflow:visible;visibility:visible;opacity:1;isolation:auto;mix-blend-mode:normal;color-interpolation:sRGB;color-interpolation-filters:linearRGB;solid-color:#000000;solid-opacity:1;fill:#28b3fc;fill-opacity:1;fill-rule:evenodd;stroke:none;stroke-width:3;stroke-linecap:butt;stroke-linejoin:round;stroke-miterlimit:4;stroke-dasharray:none;stroke-dashoffset:0;stroke-opacity:1;color-rendering:auto;image-rendering:auto;shape-rendering:auto;text-rendering:auto;enable-background:accumulate"
               d="m 505.14318,-720.9886 -122.19683,-211.6751 56.15706,-0.5268 32.6236,56.8692 32.85645,-56.5653 27.90237,0.011 14.29086,24.6896 -46.81047,80.4902 33.22946,57.8256 z"
               id="use4867" /><path
               id="path4873"
               d="m 309.40365,-710.2521 122.19683,211.6751 -56.15706,0.5268 -32.6236,-56.8692 -32.85645,56.5653 -27.90237,-0.011 -14.29086,-24.6896 46.81047,-80.4902 -33.22946,-57.8256 z"
               style="color:#000000;clip-rule:nonzero;display:inline;overflow:visible;visibility:visible;opacity:1;isolation:auto;mix-blend-mode:normal;color-interpolation:sRGB;color-interpolation-filters:linearRGB;solid-color:#000000;solid-opacity:1;fill:#28b3fc;fill-opacity:1;fill-rule:evenodd;stroke:none;stroke-width:3;stroke-linecap:butt;stroke-linejoin:round;stroke-miterlimit:4;stroke-dasharray:none;stroke-dashoffset:0;stroke-opacity:1;color-rendering:auto;image-rendering:auto;shape-rendering:auto;text-rendering:auto;enable-background:accumulate" /><path
               id="use4875"
               d="m 451.3364,-803.53264 -244.4144,-0.012 27.62229,-48.89685 65.56199,0.18175 -32.55875,-56.73717 13.96097,-24.15851 28.52722,-0.0315 46.3013,80.78414 66.69317,0.13524 z"
               style="color:#000000;clip-rule:nonzero;display:inline;overflow:visible;visibility:visible;opacity:1;isolation:auto;mix-blend-mode:normal;color-interpolation:sRGB;color-interpolation-filters:linearRGB;solid-color:#000000;solid-opacity:1;fill:#28b3fc;fill-opacity:1;fill-rule:evenodd;stroke:none;stroke-width:3;stroke-linecap:butt;stroke-linejoin:round;stroke-miterlimit:4;stroke-dasharray:none;stroke-dashoffset:0;stroke-opacity:1;color-rendering:auto;image-rendering:auto;shape-rendering:auto;text-rendering:auto;enable-background:accumulate" /><path
               id="use4877"
               d="m 460.87178,-633.8425 122.21757,-211.66304 28.53477,48.37003 -32.93839,56.68751 65.4152,0.1718 13.9414,24.1698 -14.23636,24.7211 -93.11177,-0.294 -33.46371,57.6904 z"
               style="color:#000000;clip-rule:nonzero;display:inline;overflow:visible;visibility:visible;opacity:1;isolation:auto;mix-blend-mode:normal;color-interpolation:sRGB;color-interpolation-filters:linearRGB;solid-color:#000000;solid-opacity:1;fill:#28b3fc;fill-opacity:1;fill-rule:evenodd;stroke:none;stroke-width:3;stroke-linecap:butt;stroke-linejoin:round;stroke-miterlimit:4;stroke-dasharray:none;stroke-dashoffset:0;stroke-opacity:1;color-rendering:auto;image-rendering:auto;shape-rendering:auto;text-rendering:auto;enable-background:accumulate" /><g
               id="layer2"
               style="display:none;fill:#f7f5f6;fill-opacity:1"
               transform="translate(72.039038,-1799.4476)"><path
                 d="M 460.60629,594.72881 209.74183,594.7288 84.309616,377.4738 209.74185,160.21882 l 250.86446,1e-5 125.43222,217.255 z"
                 id="path6032"
                 style="color:#000000;display:inline;overflow:visible;visibility:visible;opacity:0.236;fill:#f7f5f6;fill-opacity:1;fill-rule:nonzero;stroke:none;stroke-width:3;stroke-linecap:butt;stroke-linejoin:round;stroke-miterlimit:4;stroke-dasharray:none;stroke-dashoffset:0;stroke-opacity:1;marker:none;enable-background:accumulate" /><path
                 transform="translate(0,-308.26772)"
                 style="color:#000000;display:inline;overflow:visible;visibility:visible;opacity:1;fill:#f7f5f6;fill-opacity:1;fill-rule:nonzero;stroke:none;stroke-width:3;stroke-linecap:butt;stroke-linejoin:round;stroke-miterlimit:4;stroke-dasharray:none;stroke-dashoffset:0;stroke-opacity:1;marker:none;enable-background:accumulate"
                 id="path5875"
                 d="M 385.59154,773.06721 H 284.75659 l -50.41747,-87.32564 50.41748,-87.32563 100.83495,10e-6 50.41748,87.32563 z" /><path
                 transform="translate(0,-308.26772)"
                 id="path5851"
                 d="m 1216.5591,938.53395 123.0545,228.14035 -42.6807,-1.2616 -43.4823,-79.7725 -39.6506,80.3267 -32.6875,-19.7984 53.4737,-100.2848 -37.1157,-73.88955 z"
                 style="fill:#f7f5f6;fill-opacity:1;fill-rule:evenodd;stroke:none;stroke-width:3;stroke-linecap:butt;stroke-linejoin:round;stroke-miterlimit:4;stroke-dasharray:none;stroke-opacity:1" /><rect
                 style="color:#000000;clip-rule:nonzero;display:inline;overflow:visible;visibility:visible;opacity:0.415;isolation:auto;mix-blend-mode:normal;color-interpolation:sRGB;color-interpolation-filters:linearRGB;solid-color:#000000;solid-opacity:1;fill:#f7f5f6;fill-opacity:1;fill-rule:nonzero;stroke:none;stroke-width:3;stroke-linecap:butt;stroke-linejoin:round;stroke-miterlimit:4;stroke-dasharray:none;stroke-dashoffset:0;stroke-opacity:1;marker:none;color-rendering:auto;image-rendering:auto;shape-rendering:auto;text-rendering:auto;enable-background:accumulate"
                 id="rect5884"
                 width="48.834862"
                 height="226.22897"
                 x="-34.74221"
                 y="446.17056"
                 transform="rotate(-30)" /><path
                 transform="translate(0,-308.26772)"
                 style="color:#000000;clip-rule:nonzero;display:inline;overflow:visible;visibility:visible;opacity:0.509;isolation:auto;mix-blend-mode:normal;color-interpolation:sRGB;color-interpolation-filters:linearRGB;solid-color:#000000;solid-opacity:1;fill:#f7f5f6;fill-opacity:1;fill-rule:evenodd;stroke:none;stroke-width:3;stroke-linecap:butt;stroke-linejoin:round;stroke-miterlimit:4;stroke-dasharray:none;stroke-dashoffset:0;stroke-opacity:1;marker:none;color-rendering:auto;image-rendering:auto;shape-rendering:auto;text-rendering:auto;enable-background:accumulate"
                 id="path3428"
                 d="m 251.98568,878.63831 -14.02447,24.29109 h -28.04894 l -14.02447,-24.29109 14.02447,-24.2911 h 28.04894 z" /><use
                 x="0"
                 y="0"
                 xlink:href="#rect5884"
                 id="use4252"
                 transform="rotate(60,268.29786,489.4515)"
                 width="100%"
                 height="100%"
                 style="fill:#f7f5f6;fill-opacity:1" /><rect
                 style="color:#000000;clip-rule:nonzero;display:inline;overflow:visible;visibility:visible;opacity:1;isolation:auto;mix-blend-mode:normal;color-interpolation:sRGB;color-interpolation-filters:linearRGB;solid-color:#000000;solid-opacity:1;fill:#f7f5f6;fill-opacity:1;fill-rule:evenodd;stroke:none;stroke-width:1px;stroke-linecap:butt;stroke-linejoin:miter;stroke-miterlimit:4;stroke-dasharray:none;stroke-dashoffset:0;stroke-opacity:1;marker:none;color-rendering:auto;image-rendering:auto;shape-rendering:auto;text-rendering:auto;enable-background:accumulate"
                 id="rect4254"
                 width="5.3947482"
                 height="115.12564"
                 x="545.71014"
                 y="467.07007"
                 transform="rotate(30,575.23539,-154.13386)" /></g><path
               style="fill:#f7f5f6;fill-opacity:1;stroke-width:0.362108"
               d="m 17.647006,93.08153 c -2.137791,-3.629135 -3.886892,-6.781154 -3.886892,-7.004491 0,-0.223334 2.036859,-3.907974 4.526353,-8.18809 2.489494,-4.280113 4.526353,-7.872269 4.526353,-7.982568 0,-0.110298 -4.202399,-0.200542 -9.338664,-0.200542 H 4.1354931 L 2.2488007,66.408408 C 1.2111198,64.594822 0.36210825,62.964051 0.36210825,62.784474 c 0,-0.179578 0.83310065,-1.791759 1.85133475,-3.582627 l 1.8513347,-3.256122 13.4477393,-0.0031 13.447739,-0.0031 4.75902,-8.234844 4.75902,-8.234843 8.039166,-0.09755 8.039169,-0.09754 -0.718362,1.18387 C 55.443173,41.109708 47.744447,54.433923 38.729994,70.067947 29.715538,85.701971 22.158685,98.760409 21.936986,99.086701 21.60128,99.580783 20.884148,98.576936 17.647006,93.08153 Z"
               id="path27"
               transform="matrix(3.4748797,0,0,3.4748797,156.33872,-933.32664)" /><path
               style="fill:#f7f5f6;fill-opacity:1;stroke-width:0.181054"
               d="m 20.413065,97.739351 c -2.448138,-4.090679 -6.658726,-11.27144 -6.752434,-11.515638 -0.05373,-0.14001 2.024274,-3.903593 4.617779,-8.363519 2.593506,-4.459926 4.715464,-8.13954 4.715464,-8.17692 0,-0.03738 -4.257035,-0.07107 -9.460078,-0.07486 L 4.0737178,69.601519 2.1145346,66.168465 0.15535114,62.73541 2.2025635,59.176688 l 2.0472121,-3.558721 13.3811224,0.07335 13.381123,0.07335 4.807164,-8.283226 4.807163,-8.283227 h 7.93127 c 4.362198,0 7.931269,0.04091 7.931269,0.0909 0,0.112152 -34.58204,60.050535 -34.768044,60.260772 -0.07356,0.08315 -0.662065,-0.731596 -1.307778,-1.810541 z"
               id="path28"
               transform="matrix(3.4748797,0,0,3.4748797,156.33872,-933.32664)" /><path
               style="fill:#f7f5f6;fill-opacity:1;stroke-width:0.181054"
               d="m 20.413065,97.739351 c -2.448138,-4.090679 -6.658726,-11.27144 -6.752434,-11.515638 -0.05373,-0.14001 2.024274,-3.903593 4.617779,-8.363519 2.593506,-4.459926 4.715464,-8.13954 4.715464,-8.17692 0,-0.03738 -4.257035,-0.07107 -9.460078,-0.07486 L 4.0737178,69.601519 2.1145346,66.168465 0.15535114,62.73541 2.2025635,59.176688 l 2.0472121,-3.558721 13.3811224,0.07335 13.381123,0.07335 4.807164,-8.283226 4.807163,-8.283227 h 7.93127 c 4.362198,0 7.931269,0.04091 7.931269,0.0909 0,0.112152 -34.58204,60.050535 -34.768044,60.260772 -0.07356,0.08315 -0.662065,-0.731596 -1.307778,-1.810541 z"
               id="path29"
               transform="matrix(3.4748797,0,0,3.4748797,156.33872,-933.32664)" /><path
               style="fill:#f7f5f6;fill-opacity:1;stroke-width:0.181054"
               d="m 20.413065,97.739351 c -2.448138,-4.090679 -6.658726,-11.27144 -6.752434,-11.515638 -0.05373,-0.14001 2.024274,-3.903593 4.617779,-8.363519 2.593506,-4.459926 4.715464,-8.13954 4.715464,-8.17692 0,-0.03738 -4.257035,-0.07107 -9.460078,-0.07486 L 4.0737178,69.601519 2.1145346,66.168465 0.15535114,62.73541 2.2025635,59.176688 l 2.0472121,-3.558721 13.3811224,0.07335 13.381123,0.07335 4.807164,-8.283226 4.807163,-8.283227 h 7.93127 c 4.362198,0 7.931269,0.04091 7.931269,0.0909 0,0.112152 -34.58204,60.050535 -34.768044,60.260772 -0.07356,0.08315 -0.662065,-0.731596 -1.307778,-1.810541 z"
               id="path30"
               transform="matrix(3.4748797,0,0,3.4748797,156.33872,-933.32664)" /><path
               style="fill:#f7f5f6;fill-opacity:1;stroke-width:0.181054"
               d="m 20.413065,97.739351 c -2.448138,-4.090679 -6.658726,-11.27144 -6.752434,-11.515638 -0.05373,-0.14001 2.024274,-3.903593 4.617779,-8.363519 2.593506,-4.459926 4.715464,-8.13954 4.715464,-8.17692 0,-0.03738 -4.257035,-0.07107 -9.460078,-0.07486 L 4.0737178,69.601519 2.1145346,66.168465 0.15535114,62.73541 2.2025635,59.176688 l 2.0472121,-3.558721 13.3811224,0.07335 13.381123,0.07335 4.807164,-8.283226 4.807163,-8.283227 h 7.93127 c 4.362198,0 7.931269,0.04091 7.931269,0.0909 0,0.112152 -34.58204,60.050535 -34.768044,60.260772 -0.07356,0.08315 -0.662065,-0.731596 -1.307778,-1.810541 z"
               id="path31"
               transform="matrix(3.4748797,0,0,3.4748797,156.33872,-933.32664)" /><path
               style="fill:#f7f5f6;fill-opacity:1;stroke-width:0.181054"
               d="m 20.413065,97.739351 c -2.448138,-4.090679 -6.658726,-11.27144 -6.752434,-11.515638 -0.05373,-0.14001 2.024274,-3.903593 4.617779,-8.363519 2.593506,-4.459926 4.715464,-8.13954 4.715464,-8.17692 0,-0.03738 -4.257035,-0.07107 -9.460078,-0.07486 L 4.0737178,69.601519 2.1145346,66.168465 0.15535114,62.73541 2.2025635,59.176688 l 2.0472121,-3.558721 13.3811224,0.07335 13.381123,0.07335 4.807164,-8.283226 4.807163,-8.283227 h 7.93127 c 4.362198,0 7.931269,0.04091 7.931269,0.0909 0,0.112152 -34.58204,60.050535 -34.768044,60.260772 -0.07356,0.08315 -0.662065,-0.731596 -1.307778,-1.810541 z"
               id="path32"
               transform="matrix(3.4748797,0,0,3.4748797,156.33872,-933.32664)" /><path
               style="fill:#f7f5f6;fill-opacity:1;stroke-width:0.181054"
               d="m 20.413065,97.739351 c -2.448138,-4.090679 -6.658726,-11.27144 -6.752434,-11.515638 -0.05373,-0.14001 2.024274,-3.903593 4.617779,-8.363519 2.593506,-4.459926 4.715464,-8.13954 4.715464,-8.17692 0,-0.03738 -4.257035,-0.07107 -9.460078,-0.07486 L 4.0737178,69.601519 2.1145346,66.168465 0.15535114,62.73541 2.2025635,59.176688 l 2.0472121,-3.558721 13.3811224,0.07335 13.381123,0.07335 4.807164,-8.283226 4.807163,-8.283227 h 7.93127 c 4.362198,0 7.931269,0.04091 7.931269,0.0909 0,0.112152 -34.58204,60.050535 -34.768044,60.260772 -0.07356,0.08315 -0.662065,-0.731596 -1.307778,-1.810541 z"
               id="path33"
               transform="matrix(3.4748797,0,0,3.4748797,156.33872,-933.32664)" /><path
               style="fill:#f7f5f6;fill-opacity:1;stroke-width:0.181054"
               d="m 20.413065,97.739351 c -2.448138,-4.090679 -6.658726,-11.27144 -6.752434,-11.515638 -0.05373,-0.14001 2.024274,-3.903593 4.617779,-8.363519 2.593506,-4.459926 4.715464,-8.13954 4.715464,-8.17692 0,-0.03738 -4.257035,-0.07107 -9.460078,-0.07486 L 4.0737178,69.601519 2.1145346,66.168465 0.15535114,62.73541 2.2025635,59.176688 l 2.0472121,-3.558721 13.3811224,0.07335 13.381123,0.07335 4.807164,-8.283226 4.807163,-8.283227 h 7.93127 c 4.362198,0 7.931269,0.04091 7.931269,0.0909 0,0.112152 -34.58204,60.050535 -34.768044,60.260772 -0.07356,0.08315 -0.662065,-0.731596 -1.307778,-1.810541 z"
               id="path34"
               transform="matrix(3.4748797,0,0,3.4748797,156.33872,-933.32664)" /><path
               style="fill:#f7f5f6;fill-opacity:1;stroke-width:0.181054"
               d="m 20.413065,97.739351 c -2.448138,-4.090679 -6.658726,-11.27144 -6.752434,-11.515638 -0.05373,-0.14001 2.024274,-3.903593 4.617779,-8.363519 2.593506,-4.459926 4.715464,-8.13954 4.715464,-8.17692 0,-0.03738 -4.257035,-0.07107 -9.460078,-0.07486 L 4.0737178,69.601519 2.1145346,66.168465 0.15535114,62.73541 2.2025635,59.176688 l 2.0472121,-3.558721 13.3811224,0.07335 13.381123,0.07335 4.807164,-8.283226 4.807163,-8.283227 h 7.93127 c 4.362198,0 7.931269,0.04091 7.931269,0.0909 0,0.112152 -34.58204,60.050535 -34.768044,60.260772 -0.07356,0.08315 -0.662065,-0.731596 -1.307778,-1.810541 z"
               id="path35"
               transform="matrix(3.4748797,0,0,3.4748797,156.33872,-933.32664)" /></g><g
             id="layer3"
             style="display:inline;opacity:1;fill:#28b3fc;fill-opacity:1"
             transform="translate(-14.982227,-492.1621)"><path
               id="path3336-6"
               d="m 309.54892,-710.38827 122.19683,211.67512 -56.15706,0.5268 -32.6236,-56.8692 -32.85645,56.5653 -27.90237,-0.011 -14.29086,-24.6896 46.81047,-80.4901 -33.22946,-57.8257 z"
               style="opacity:1;fill:#28b3fc;fill-opacity:1;fill-rule:evenodd;stroke:none;stroke-width:3;stroke-linecap:butt;stroke-linejoin:round;stroke-miterlimit:4;stroke-dasharray:none;stroke-opacity:1" /><use
               height="100%"
               width="100%"
               transform="rotate(60,407.11155,-715.78724)"
               id="use3439-6"
               xlink:href="#path3336-6"
               y="0"
               x="0"
               style="fill:#f7f5f6;fill-opacity:1" /><use
               height="100%"
               width="100%"
               transform="rotate(-60,407.31177,-715.70016)"
               id="use3445-0"
               xlink:href="#path3336-6"
               y="0"
               x="0"
               style="fill:#f7f5f6;fill-opacity:1" /><use
               height="100%"
               width="100%"
               transform="rotate(180,407.41868,-715.7565)"
               id="use3449-5"
               xlink:href="#path3336-6"
               y="0"
               x="0"
               style="fill:#f7f5f6;fill-opacity:1" /><path
               style="fill:#f7f5f6;fill-opacity:1;stroke:#28b3fc;stroke-width:7.88004;stroke-dasharray:none;stroke-opacity:1"
               d="m 309.54892,-710.38827 122.19683,211.67512 -56.15706,0.5268 -32.6236,-56.8692 -32.85645,56.5653 -27.90237,-0.011 -14.29086,-24.6896 46.81047,-80.4901 -33.22946,-57.8256 z"
               id="path4260-0" /><use
               height="100%"
               width="100%"
               transform="rotate(120,407.33916,-716.08356)"
               id="use4354-5"
               xlink:href="#path4260-0"
               y="0"
               x="0"
               style="display:inline;fill:#28b3fc;fill-opacity:1;stroke:#28b3fc;stroke-width:7.88004;stroke-dasharray:none;stroke-opacity:1" /><use
               height="100%"
               width="100%"
               transform="rotate(-120,407.28823,-715.86995)"
               id="use4362-2"
               xlink:href="#path4260-0"
               y="0"
               x="0"
               style="display:inline;fill:#28b3fc;fill-opacity:1;stroke:#28b3fc;stroke-width:7.88004;stroke-dasharray:none;stroke-opacity:1" /></g><g
             id="g104"
             style="fill:url(#linearGradient107);stroke:none"
             transform="rotate(-13.062247,340.02897,-863.93232)"><path
               id="use3449-5-0-0"
               d="m 331.77633,-1001.5212 94.91305,225.23301 -55.78631,-6.46377 -25.29508,-60.48604 -39.63845,52.03815 -27.6842,-3.48227 -11.10824,-26.27568 56.46054,-74.04107 -25.77721,-61.5105 z"
               style="fill:#28b3fc;fill-opacity:1" /><path
               id="use3449-5-0-0-6"
               d="m 457.16967,-744.75745 -70.00051,-234.1759 54.76023,12.45846 18.60597,62.86668 45.03324,-47.44663 27.14534,6.4555 8.2017,27.32283 -64.13603,67.50143 18.97452,63.93729 z"
               style="fill:#ff0d01;fill-opacity:1" /><path
               id="use3449-5-0-0-4"
               d="m 277.21377,-582.32585 178.97491,-166.45237 -53.52586,-16.99636 -47.88683,44.78006 -14.79485,-63.7204 -26.67512,-8.18413 -20.91172,19.40373 21.10703,90.68829 -48.74692,45.51646 z"
               style="fill:#f8f641;fill-opacity:1" /></g></g></g></g><path
       style="fill:#f7f5f6;fill-opacity:1;stroke-width:0.181054"
       d="m 20.413065,97.739351 c -2.448138,-4.090679 -6.658726,-11.27144 -6.752434,-11.515638 -0.05373,-0.14001 2.024274,-3.903593 4.617779,-8.363519 2.593506,-4.459926 4.715464,-8.13954 4.715464,-8.17692 0,-0.03738 -4.257035,-0.07107 -9.460078,-0.07486 L 4.0737178,69.601519 2.1145346,66.168465 0.15535114,62.73541 2.2025635,59.176688 l 2.0472121,-3.558721 13.3811224,0.07335 13.381123,0.07335 4.807164,-8.283226 4.807163,-8.283227 h 7.93127 c 4.362198,0 7.931269,0.04091 7.931269,0.0909 0,0.112152 -34.58204,60.050535 -34.768044,60.260772 -0.07356,0.08315 -0.662065,-0.731596 -1.307778,-1.810541 z"
       id="path36"
       transform="matrix(0.58305237,0,0,0.58305237,64.401373,52.754168)" /><path
       style="fill:#f7f5f6;fill-opacity:1;stroke:#28b3fc;stroke-width:2.26772;stroke-dasharray:none;stroke-opacity:1"
       d="M 21.228346,98.82575 C 20.775825,98.187139 14.573556,87.698587 14.099569,86.770393 l -0.346608,-0.67875 1.796437,-3.213914 c 0.988041,-1.767653 3.067246,-5.409743 4.620457,-8.093538 1.553211,-2.683792 2.824019,-4.931476 2.824019,-4.99485 0,-0.110336 -11.090545,-0.351953 -16.3853984,-0.356972 L 4.0737178,69.429968 2.217913,66.175832 C 1.1972204,64.386056 0.36210825,62.847854 0.36210825,62.757606 c 0,-0.09025 0.87964515,-1.70058 1.95476695,-3.578513 l 1.954767,-3.414422 13.3895698,0.06926 13.389571,0.06926 4.821268,-8.307221 4.821271,-8.307221 3.145111,-0.04488 c 1.729813,-0.02469 5.235571,0.01605 7.790576,0.09053 l 4.645463,0.135412 -3.534135,6.15584 c -4.146422,7.222338 -16.886029,29.318862 -25.000346,43.362463 -3.135747,5.427098 -5.801825,9.976251 -5.924618,10.109228 -0.183451,0.198671 -0.288115,0.150249 -0.587027,-0.271581 z"
       id="path37"
       transform="matrix(0.58305237,0,0,0.58305237,64.401373,52.754168)" /><path
       style="fill:#f7f5f6;fill-opacity:1;stroke:#28b3fc;stroke-width:2.26772;stroke-dasharray:none;stroke-opacity:1"
       d="m 97.636535,120.63066 c -1.389583,-2.41665 -4.382703,-7.63252 -6.651376,-11.59081 l -4.12486,-7.1969 -4.45825,-0.005 c -4.928423,-0.005 -14.743895,-0.1852 -14.838725,-0.27196 -0.03322,-0.0304 -1.827632,-3.096939 -3.987593,-6.814561 l -3.9272,-6.759314 17.535793,-0.04616 c 9.644687,-0.02539 25.387006,-0.02539 34.982936,0 l 17.44715,0.04616 -1.54239,2.715812 c -0.84832,1.493697 -2.61343,4.622573 -3.92248,6.953058 l -2.38008,4.237245 -9.38708,-0.11294 c -7.6636,-0.0922 -9.37652,-0.0697 -9.32957,0.12287 0.0316,0.1297 2.12168,3.83356 4.64454,8.23081 l 4.58703,7.995 -1.97119,3.3966 -1.9712,3.39659 -4.08947,0.0486 -4.08947,0.0486 z"
       id="path38"
       transform="matrix(0.58305237,0,0,0.58305237,64.401373,52.754168)" /><path
       style="fill:#f7f5f6;fill-opacity:1;stroke:#28b3fc;stroke-width:2.26772;stroke-dasharray:none;stroke-opacity:1"
       d="M 87.802229,39.150266 C 80.890113,27.177278 73.023088,13.551901 70.319951,8.8716522 L 65.405158,0.36210825 68.59656,0.24891517 c 1.755271,-0.0622562 5.350472,-0.12261799 7.989335,-0.1341373 l 4.797935,-0.0209442 4.519855,7.89261083 c 2.48592,4.3409365 4.610279,8.0162745 4.7208,8.1674195 0.162204,0.22183 1.117147,-1.300038 4.953498,-7.8942647 l 4.752557,-8.16907224 h 3.92896 3.92895 l 2.03256,3.50763344 c 1.1179,1.9291986 2.03255,3.5544662 2.03255,3.6117061 0,0.05724 -3.01666,5.2908554 -6.70369,11.6302564 l -6.703688,11.526185 4.779848,8.329337 4.77986,8.329337 -3.94792,6.877008 c -2.17135,3.782353 -3.97949,6.908583 -4.01808,6.947175 -0.0386,0.03859 -5.725543,-9.725911 -12.637661,-21.698899 z"
       id="path39"
       transform="matrix(0.58305237,0,0,0.58305237,64.401373,52.754168)" /></g><metadata
     id="metadata39"><rdf:RDF><cc:Work
         rdf:about=""><cc:license
           rdf:resource="http://creativecommons.org/publicdomain/zero/1.0/" /><dc:title>DashNix</dc:title></cc:Work><cc:License
         rdf:about="http://creativecommons.org/publicdomain/zero/1.0/"><cc:permits
           rdf:resource="http://creativecommons.org/ns#Reproduction" /><cc:permits
           rdf:resource="http://creativecommons.org/ns#Distribution" /><cc:permits
           rdf:resource="http://creativecommons.org/ns#DerivativeWorks" /></cc:License></rdf:RDF></metadata></svg>
